<?xml version="1.0" encoding="iso-8859-1"?>
<!-- Generator: Adobe Illustrator 19.1.1, SVG Export Plug-In . SVG Version: 6.00 Build 0)  -->
<svg xmlns="http://www.w3.org/2000/svg" xmlns:xlink="http://www.w3.org/1999/xlink" viewBox="0 0 16 16" width="96px" height="96px" fill="white">
  <polygon points="6,10 6,5 11,7.5"/>
  <path style="fill:none;stroke:white;stroke-miterlimit:10;" d="M14.224,10.797c-0.125,0.697-0.673,1.231-1.357,1.333C11.781,12.291,9.992,12.5,8,12.5c-1.993,0-3.782-0.209-4.867-0.371c-0.684-0.102-1.231-0.636-1.357-1.332C1.639,10.034,1.5,8.914,1.5,7.5c0-1.414,0.139-2.536,0.276-3.298c0.125-0.697,0.672-1.23,1.356-1.332C4.213,2.708,5.996,2.5,8,2.5c2.004,0,3.786,0.208,4.867,0.369c0.684,0.102,1.231,0.636,1.356,1.333C14.361,4.966,14.5,6.089,14.5,7.5C14.5,8.91,14.361,10.033,14.224,10.797z"/>
</svg>
